<?xml version="1.0" encoding="utf-8"?>
<!-- Generator: Adobe Illustrator 19.2.1, SVG Export Plug-In . SVG Version: 6.00 Build 0)  -->
<svg version="1.1" id="Layer_1" xmlns="http://www.w3.org/2000/svg" xmlns:xlink="http://www.w3.org/1999/xlink" x="0px" y="0px"
	 viewBox="0 0 30 30" style="enable-background:new 0 0 30 30;" xml:space="preserve">
<style type="text/css">
	.st0{fill:#0067B4;}
</style>
<g>
	<path class="st0" d="M17,26.8v-4.1c1.6-0.4,2.7-1,3.6-1.7c0.8-0.8,1.5-1.7,1.9-2.9c0.5-1.2,0.7-2.6,0.7-4.3c-2,0-3.5-0.6-4.5-1.7
		c-1-1.1-1.4-2.3-1.4-3.6c0-1.5,0.5-2.8,1.6-3.8c1.1-1,2.3-1.5,3.7-1.5c1.8,0,3.4,0.8,4.7,2.4s2,3.7,2,6.4c0,2.4-0.5,4.6-1.6,6.7
		c-1,2.1-2.5,3.9-4.2,5.4C21.8,25.6,19.6,26.5,17,26.8z"/>
	<path class="st0" d="M0.7,26.8v-4.1c1.6-0.4,2.7-1,3.6-1.7c0.8-0.8,1.5-1.7,1.9-2.9c0.5-1.2,0.7-2.6,0.7-4.3c-2,0-3.5-0.6-4.5-1.7
		S1,9.8,1,8.5C1,7,1.5,5.7,2.6,4.7s2.3-1.5,3.7-1.5c1.8,0,3.4,0.8,4.7,2.4s2,3.7,2,6.4c0,2.4-0.5,4.6-1.6,6.7S9,22.6,7.2,24.1
		C5.4,25.6,3.2,26.5,0.7,26.8z"/>
</g>
</svg>
