<?xml version="1.0" standalone="no"?><!DOCTYPE svg PUBLIC "-//W3C//DTD SVG 1.1//EN" "http://www.w3.org/Graphics/SVG/1.1/DTD/svg11.dtd"><svg width="100%" height="100%" viewBox="0 0 300 50" version="1.1" xmlns="http://www.w3.org/2000/svg" xmlns:xlink="http://www.w3.org/1999/xlink" xml:space="preserve" style="fill-rule:evenodd;clip-rule:evenodd;stroke-linejoin:round;stroke-miterlimit:1.41421;"><path id="XMLID_246_" d="M98.955,39.749c-0.2,0 -0.3,0 -0.5,-0.1c-0.1,0 -0.1,0 -0.2,-0.1c-0.1,0 -0.2,-0.1 -0.2,-0.1l-0.1,0l-0.1,-0.1c-0.2,-0.2 -0.4,-0.4 -0.5,-0.7l-9.3,-22.1c-0.3,-0.8 0,-1.8 0.9,-2.2c0.2,-0.1 0.4,-0.1 0.7,-0.1c0.7,0 1.3,0.4 1.6,1.1l7.6,18.4l7.8,-18.4c0.2,-0.6 0.9,-1.1 1.6,-1.1c0.2,0 0.4,0 0.6,0.1c0.4,0.2 0.7,0.5 0.9,0.9c0.2,0.4 0.1,0.9 0,1.3l-9.2,21.9c-0.1,0.3 -0.2,0.5 -0.4,0.7c-0.4,0.4 -0.9,0.6 -1.2,0.6Z" style="fill:#9daabb;fill-rule:nonzero;"/><path id="XMLID_226_" d="M137.955,39.749c-0.9,0 -1.7,-0.8 -1.7,-1.7l0,-2.3c-2.3,2.6 -5.5,4 -8.8,4c-6.7,0 -12.2,-5.8 -12.2,-12.9c0,-7.1 5.5,-12.9 12.2,-12.9c3.3,0 6.5,1.4 8.8,4l0,-2.2c0,-1 0.7,-1.7 1.7,-1.7c1,0 1.7,0.7 1.7,1.7l0,22.3c0,0.9 -0.8,1.7 -1.7,1.7ZM127.455,17.349c-4.9,0 -8.8,4.3 -8.8,9.5c0,5.2 4,9.5 8.8,9.5c4.9,0 8.8,-4.2 8.8,-9.5c0,-5.2 -4,-9.5 -8.8,-9.5Z" style="fill:#9daabb;fill-rule:nonzero;"/><path id="XMLID_224_" d="M150.355,39.749c-0.9,0 -1.7,-0.8 -1.7,-1.7l0,-32.9c0,-0.9 0.8,-1.7 1.7,-1.7c1,0 1.7,0.8 1.7,1.7l0,32.9c0.1,0.9 -0.7,1.7 -1.7,1.7Z" style="fill:#9daabb;fill-rule:nonzero;"/><path id="XMLID_216_" d="M171.555,39.749c-6.9,0 -12.5,-5.7 -12.5,-12.8c0,-3.5 1.3,-6.7 3.6,-9.1c2.4,-2.4 5.5,-3.8 8.9,-3.8c6.5,0 11.9,5.1 12.4,12l0,0.2c0,0.9 -0.7,1.6 -1.7,1.6l-19.8,0c0.2,2.3 1.2,4.4 2.8,5.9c1.7,1.7 3.9,2.6 6.3,2.6c3.1,0 6,-1.6 7.6,-4.3c0.3,-0.5 0.8,-0.8 1.4,-0.8c0.3,0 0.6,0.1 0.9,0.2c0.8,0.6 1,1.6 0.5,2.4c-2.3,3.7 -6.2,5.9 -10.4,5.9ZM180.255,24.449c-0.5,-2 -1.5,-3.7 -3.1,-5c-1.6,-1.3 -3.6,-2.1 -5.6,-2.1c-2.1,0 -4.1,0.7 -5.7,2c-1.5,1.3 -2.6,3 -3.1,5l17.5,0l0,0.1Z" style="fill:#9daabb;fill-rule:nonzero;"/><path id="XMLID_215_" d="M210.255,39.749c-1,0 -1.7,-0.7 -1.7,-1.7l0,-13.4c0,-3.9 -3.2,-7.1 -7.1,-7.1c-3.9,0 -7.1,3.2 -7.2,7.2l0,13.8c-0.1,0.2 -0.1,0.5 -0.3,0.7c-0.3,0.4 -0.8,0.6 -1.3,0.6l-0.5,0l-0.1,0c-0.5,-0.1 -0.9,-0.4 -1.1,-0.9c-0.1,-0.1 -0.1,-0.1 -0.1,-0.2l-0.1,-0.1l0.1,-0.2l0,-22.7c0,-1 0.7,-1.7 1.7,-1.7c0.9,0 1.6,0.8 1.6,1.7l0,1.2c1.9,-1.8 4.5,-2.9 7.2,-2.9c5.8,0 10.5,4.7 10.5,10.5l0,13.4c0.1,1 -0.7,1.8 -1.6,1.8Z" style="fill:#9daabb;fill-rule:nonzero;"/><path id="XMLID_214_" d="M228.855,39.749c-3.3,0 -6.5,-1.3 -9.4,-3.6c-0.7,-0.6 -0.8,-1.6 -0.2,-2.3c0.3,-0.4 0.8,-0.6 1.3,-0.6c0.4,0 0.8,0.1 1.1,0.4c2.5,1.8 5,2.8 7.3,2.8c1.7,0 3.3,-0.5 4.4,-1.4c1.1,-0.7 1.7,-1.7 1.7,-2.6c0,-1 -0.5,-1.7 -1.6,-2.7c-1,-0.7 -2.7,-1.3 -5,-1.7l-0.1,0l-0.1,-0.1c-2.1,-0.4 -4.2,-0.9 -5.7,-2c-1.8,-1.1 -2.9,-2.9 -2.9,-4.9c0,-2 1,-3.9 2.9,-5.2c1.7,-1.2 3.9,-1.8 6.3,-1.8c3.3,0 5.6,1.5 7.5,2.7l0.1,0.1c0.8,0.6 1,1.6 0.5,2.4c-0.3,0.5 -0.8,0.8 -1.4,0.8c-0.3,0 -0.6,-0.1 -0.9,-0.3l-0.2,-0.1c-1.7,-1.1 -3.4,-2.3 -5.6,-2.3c-1.8,0 -3.4,0.5 -4.4,1.3c-0.9,0.7 -1.4,1.6 -1.4,2.5c0,0.8 0.3,1.4 1.2,2.1c1.1,0.8 2.7,1.3 4.8,1.6l0.1,0c2.3,0.3 4.3,1 6.2,2.1c1.9,1.2 3,3.3 3,5.5c0,2 -1,3.9 -3,5.4c-1.9,1.2 -4,1.9 -6.5,1.9Z" style="fill:#9daabb;fill-rule:nonzero;"/><path id="XMLID_211_" d="M267.955,39.749c-0.9,0 -1.7,-0.8 -1.7,-1.7l0,-2.3c-2.3,2.6 -5.5,4 -8.8,4c-6.7,0 -12.2,-5.8 -12.2,-12.9c0,-7.1 5.5,-12.9 12.2,-12.9c3.3,0 6.5,1.4 8.8,4l0,-2.2c0,-1 0.7,-1.7 1.7,-1.7c1,0 1.7,0.7 1.7,1.7l0,22.3c0,0.9 -0.8,1.7 -1.7,1.7ZM257.455,17.349c-4.9,0 -8.8,4.3 -8.8,9.5c0,5.2 4,9.5 8.8,9.5c4.9,0 8.8,-4.2 8.8,-9.5c0,-5.2 -3.9,-9.5 -8.8,-9.5Z" style="fill:#9daabb;fill-rule:nonzero;"/><path id="XMLID_209_" d="M286.655,39.749c-3.3,0 -6.5,-1.3 -9.4,-3.6c-0.7,-0.6 -0.8,-1.6 -0.2,-2.3c0.3,-0.4 0.8,-0.6 1.3,-0.6c0.4,0 0.8,0.1 1.1,0.4c2.5,1.8 5,2.8 7.3,2.8c1.7,0 3.3,-0.5 4.4,-1.4c1.1,-0.7 1.7,-1.7 1.7,-2.6c0,-1 -0.5,-1.7 -1.6,-2.7c-1,-0.7 -2.7,-1.3 -5,-1.7l-0.1,0l-0.1,-0.1c-2.1,-0.4 -4.2,-0.9 -5.7,-2c-1.8,-1.1 -2.9,-2.9 -2.9,-4.9c0,-2 1,-3.9 2.9,-5.2c1.7,-1.2 3.9,-1.8 6.3,-1.8c3.3,0 5.6,1.5 7.5,2.7l0.1,0.1c0.8,0.6 1,1.6 0.5,2.4c-0.3,0.5 -0.8,0.8 -1.4,0.8c-0.3,0 -0.6,-0.1 -0.9,-0.3l-0.2,-0.1c-1.7,-1.1 -3.4,-2.3 -5.6,-2.3c-1.8,0 -3.4,0.5 -4.4,1.3c-0.9,0.7 -1.4,1.6 -1.4,2.5c0,0.8 0.3,1.4 1.2,2.1c1.1,0.8 2.7,1.3 4.8,1.6l0.1,0c2.3,0.3 4.3,1 6.2,2.1c1.9,1.2 3,3.3 3,5.5c0,2 -1,3.9 -3,5.4c-1.9,1.2 -4,1.9 -6.5,1.9Z" style="fill:#9daabb;fill-rule:nonzero;"/><g id="XMLID_203_"><path id="XMLID_208_" d="M32.155,18.949c0,-5.7 4.6,-10.4 10.4,-10.4c5.8,0 10.4,4.6 10.4,10.4c0,5.7 -4.6,10.4 -10.4,10.4c-5.8,0 -10.4,-4.7 -10.4,-10.4Z" style="fill:#0067b4;fill-rule:nonzero;"/><path id="XMLID_204_" d="M68.855,9.849l-17.7,19.1c-2.9,2.9 -6,3.8 -8.8,3.7c-2.8,0.1 -5.9,-0.9 -8.8,-3.7l-18,-19.5c-6.1,-5.8 -15.1,1.6 -10.4,9.2l18.7,20c5.3,5.3 11.9,8 18.6,7.9c6.7,0.1 13.3,-2.6 18.7,-8l17.9,-19.5c6.1,-6.6 -3.5,-16.3 -10.2,-9.2Z" style="fill:#0067b4;fill-rule:nonzero;"/></g></svg>