<?xml version="1.0" encoding="utf-8"?>
<!-- Generator: Adobe Illustrator 19.2.1, SVG Export Plug-In . SVG Version: 6.00 Build 0)  -->
<svg version="1.1" id="Layer_1" xmlns="http://www.w3.org/2000/svg" xmlns:xlink="http://www.w3.org/1999/xlink" x="0px" y="0px"
	 viewBox="0 0 300 100" style="enable-background:new 0 0 300 100;" xml:space="preserve">
<style type="text/css">
	.st0{fill:#9DAABB;}
	.st1{fill:#0067B4;}
</style>
<path id="XMLID_246_" class="st0" d="M98.8,65c-0.2,0-0.3,0-0.5-0.1c-0.1,0-0.1,0-0.2-0.1c-0.1,0-0.2-0.1-0.2-0.1c0,0,0,0,0,0
	l-0.1,0l-0.1-0.1c-0.2-0.2-0.4-0.4-0.5-0.7l-9.3-22.1c-0.3-0.8,0-1.8,0.9-2.2c0.2-0.1,0.4-0.1,0.7-0.1c0.7,0,1.3,0.4,1.6,1.1
	L98.7,59l7.8-18.4c0.2-0.6,0.9-1.1,1.6-1.1c0.2,0,0.4,0,0.6,0.1c0.4,0.2,0.7,0.5,0.9,0.9c0.2,0.4,0.1,0.9,0,1.3l-9.2,21.9
	c-0.1,0.3-0.2,0.5-0.4,0.7C99.6,64.8,99.1,65,98.8,65z"/>
<path id="XMLID_226_" class="st0" d="M137.8,65c-0.9,0-1.7-0.8-1.7-1.7V61c-2.3,2.6-5.5,4-8.8,4c-6.7,0-12.2-5.8-12.2-12.9
	s5.5-12.9,12.2-12.9c3.3,0,6.5,1.4,8.8,4V41c0-1,0.7-1.7,1.7-1.7c1,0,1.7,0.7,1.7,1.7v22.3C139.5,64.2,138.7,65,137.8,65z
	 M127.3,42.6c-4.9,0-8.8,4.3-8.8,9.5c0,5.2,4,9.5,8.8,9.5c4.9,0,8.8-4.2,8.8-9.5C136.1,46.9,132.1,42.6,127.3,42.6z"/>
<path id="XMLID_224_" class="st0" d="M150.2,65c-0.9,0-1.7-0.8-1.7-1.7V30.4c0-0.9,0.8-1.7,1.7-1.7c1,0,1.7,0.8,1.7,1.7v32.9
	C152,64.2,151.2,65,150.2,65z"/>
<path id="XMLID_216_" class="st0" d="M171.4,65c-6.9,0-12.5-5.7-12.5-12.8c0-3.5,1.3-6.7,3.6-9.1c2.4-2.4,5.5-3.8,8.9-3.8
	c6.5,0,11.9,5.1,12.4,12l0,0l0,0.2c0,0.9-0.7,1.6-1.7,1.6h-19.8c0.2,2.3,1.2,4.4,2.8,5.9c1.7,1.7,3.9,2.6,6.3,2.6
	c3.1,0,6-1.6,7.6-4.3c0.3-0.5,0.8-0.8,1.4-0.8c0.3,0,0.6,0.1,0.9,0.2l0,0l0,0c0.8,0.6,1,1.6,0.5,2.4C179.5,62.8,175.6,65,171.4,65z
	 M180.1,49.7c-0.5-2-1.5-3.7-3.1-5c-1.6-1.3-3.6-2.1-5.6-2.1c-2.1,0-4.1,0.7-5.7,2c-1.5,1.3-2.6,3-3.1,5H180.1z"/>
<path id="XMLID_215_" class="st0" d="M210.1,65c-1,0-1.7-0.7-1.7-1.7V49.9c0-3.9-3.2-7.1-7.1-7.1c-3.9,0-7.1,3.2-7.2,7.2l0,13.7
	l0,0.1c-0.1,0.2-0.1,0.5-0.3,0.7c-0.3,0.4-0.8,0.6-1.3,0.6H192l-0.1,0c-0.5-0.1-0.9-0.4-1.1-0.9c-0.1-0.1-0.1-0.1-0.1-0.2l-0.1-0.1
	l0.1-0.2V41c0-1,0.7-1.7,1.7-1.7c0.9,0,1.6,0.8,1.6,1.7v1.2c1.9-1.8,4.5-2.9,7.2-2.9c5.8,0,10.5,4.7,10.5,10.5v13.4
	C211.8,64.2,211,65,210.1,65z"/>
<path id="XMLID_214_" class="st0" d="M228.7,65c-3.3,0-6.5-1.3-9.4-3.6l0,0c-0.7-0.6-0.8-1.6-0.2-2.3c0.3-0.4,0.8-0.6,1.3-0.6
	c0.4,0,0.8,0.1,1.1,0.4c2.5,1.8,5,2.8,7.3,2.8c1.7,0,3.3-0.5,4.4-1.4l0,0l0,0c1.1-0.7,1.7-1.7,1.7-2.6c0-1-0.5-1.7-1.6-2.7
	c-1-0.7-2.7-1.3-5-1.7l-0.1,0l-0.1-0.1c-2.1-0.4-4.2-0.9-5.7-2c-1.8-1.1-2.9-2.9-2.9-4.9c0-2,1-3.9,2.9-5.2c1.7-1.2,3.9-1.8,6.3-1.8
	c3.3,0,5.6,1.5,7.5,2.7l0.1,0.1c0.8,0.6,1,1.6,0.5,2.4c-0.3,0.5-0.8,0.8-1.4,0.8c-0.3,0-0.6-0.1-0.9-0.3l-0.2-0.1
	c-1.7-1.1-3.4-2.3-5.6-2.3c-1.8,0-3.4,0.5-4.4,1.3c-0.9,0.7-1.4,1.6-1.4,2.5c0,0.8,0.3,1.4,1.2,2.1c1.1,0.8,2.7,1.3,4.8,1.6h0.1l0,0
	c2.3,0.3,4.3,1,6.2,2.1l0,0c1.9,1.2,3,3.3,3,5.5c0,2-1,3.9-3,5.4C233.3,64.3,231.2,65,228.7,65L228.7,65z"/>
<path id="XMLID_211_" class="st0" d="M267.8,65c-0.9,0-1.7-0.8-1.7-1.7V61c-2.3,2.6-5.5,4-8.8,4c-6.7,0-12.2-5.8-12.2-12.9
	s5.5-12.9,12.2-12.9c3.3,0,6.5,1.4,8.8,4V41c0-1,0.7-1.7,1.7-1.7c1,0,1.7,0.7,1.7,1.7v22.3C269.5,64.2,268.7,65,267.8,65z
	 M257.3,42.6c-4.9,0-8.8,4.3-8.8,9.5c0,5.2,4,9.5,8.8,9.5c4.9,0,8.8-4.2,8.8-9.5C266.1,46.9,262.2,42.6,257.3,42.6z"/>
<path id="XMLID_209_" class="st0" d="M286.5,65c-3.3,0-6.5-1.3-9.4-3.6l0,0c-0.7-0.6-0.8-1.6-0.2-2.3c0.3-0.4,0.8-0.6,1.3-0.6
	c0.4,0,0.8,0.1,1.1,0.4c2.5,1.8,5,2.8,7.3,2.8c1.7,0,3.3-0.5,4.4-1.4l0,0l0,0c1.1-0.7,1.7-1.7,1.7-2.6c0-1-0.5-1.7-1.6-2.7
	c-1-0.7-2.7-1.3-5-1.7l-0.1,0l-0.1-0.1c-2.1-0.4-4.2-0.9-5.7-2c-1.8-1.1-2.9-2.9-2.9-4.9c0-2,1-3.9,2.9-5.2c1.7-1.2,3.9-1.8,6.3-1.8
	c3.3,0,5.6,1.5,7.5,2.7l0.1,0.1c0.8,0.6,1,1.6,0.5,2.4c-0.3,0.5-0.8,0.8-1.4,0.8c-0.3,0-0.6-0.1-0.9-0.3l-0.2-0.1
	c-1.7-1.1-3.4-2.3-5.6-2.3c-1.8,0-3.4,0.5-4.4,1.3c-0.9,0.7-1.4,1.6-1.4,2.5c0,0.8,0.3,1.4,1.2,2.1c1.1,0.8,2.7,1.3,4.8,1.6h0.1l0,0
	c2.3,0.3,4.3,1,6.2,2.1l0,0c1.9,1.2,3,3.3,3,5.5c0,2-1,3.9-3,5.4C291.1,64.3,289,65,286.5,65L286.5,65z"/>
<g id="XMLID_203_">
	<path id="XMLID_208_" class="st1" d="M32,44.2c0-5.7,4.6-10.4,10.4-10.4s10.4,4.6,10.4,10.4c0,5.7-4.6,10.4-10.4,10.4
		S32,49.9,32,44.2L32,44.2z"/>
	<path id="XMLID_204_" class="st1" d="M68.7,35.1L51,54.2c-2.9,2.9-6,3.8-8.8,3.7c-2.8,0.1-5.9-0.9-8.8-3.7l-18-19.5
		C9.3,28.9,0.3,36.3,5,43.9l18.7,20c5.3,5.3,11.9,8,18.6,7.9c6.7,0.1,13.3-2.6,18.7-8l17.9-19.5C85,37.7,75.4,28,68.7,35.1z"/>
</g>
</svg>
