<?xml version="1.0" encoding="utf-8"?>
<!-- Generator: Adobe Illustrator 19.2.1, SVG Export Plug-In . SVG Version: 6.00 Build 0)  -->
<svg version="1.1" id="Layer_1" xmlns="http://www.w3.org/2000/svg" xmlns:xlink="http://www.w3.org/1999/xlink" x="0px" y="0px"
	 viewBox="0 0 30 30" style="enable-background:new 0 0 30 30;" xml:space="preserve">
<style type="text/css">
	.st0{fill:#0067B4;}
</style>
<g>
	<path class="st0" d="M13,3.2v4.1c-1.6,0.4-2.7,1-3.6,1.7C8.6,9.7,8,10.7,7.5,11.9C7,13,6.8,14.5,6.8,16.2c2,0,3.5,0.6,4.5,1.7
		c1,1.1,1.4,2.3,1.4,3.6c0,1.5-0.5,2.8-1.6,3.8s-2.3,1.5-3.7,1.5c-1.8,0-3.4-0.8-4.7-2.4c-1.3-1.6-2-3.7-2-6.4
		c0-2.4,0.5-4.6,1.6-6.7s2.5-3.9,4.2-5.4C8.2,4.4,10.4,3.5,13,3.2z"/>
	<path class="st0" d="M29.3,3.2v4.1c-1.6,0.4-2.7,1-3.6,1.7c-0.8,0.8-1.5,1.7-1.9,2.9c-0.5,1.2-0.7,2.6-0.7,4.3c2,0,3.5,0.6,4.5,1.7
		c1,1.1,1.4,2.3,1.4,3.6c0,1.5-0.5,2.8-1.6,3.8c-1.1,1-2.3,1.5-3.7,1.5c-1.8,0-3.4-0.8-4.7-2.4c-1.3-1.6-2-3.7-2-6.4
		c0-2.4,0.5-4.6,1.6-6.7c1-2.1,2.5-3.9,4.2-5.4C24.6,4.4,26.8,3.5,29.3,3.2z"/>
</g>
</svg>
