<svg id="Layer_1" xmlns="http://www.w3.org/2000/svg" viewBox="0 0 30 30"><style>.st0{fill:#0067b4}</style><path class="st0" d="M13 3.2v4.1c-1.6.4-2.7 1-3.6 1.7-.8.7-1.4 1.7-1.9 2.9-.5 1.1-.7 2.6-.7 4.3 2 0 3.5.6 4.5 1.7s1.4 2.3 1.4 3.6c0 1.5-.5 2.8-1.6 3.8s-2.3 1.5-3.7 1.5c-1.8 0-3.4-.8-4.7-2.4-1.3-1.6-2-3.7-2-6.4 0-2.4.5-4.6 1.6-6.7s2.5-3.9 4.2-5.4c1.7-1.5 3.9-2.4 6.5-2.7zM29.3 3.2v4.1c-1.6.4-2.7 1-3.6 1.7-.8.8-1.5 1.7-1.9 2.9-.5 1.2-.7 2.6-.7 4.3 2 0 3.5.6 4.5 1.7s1.4 2.3 1.4 3.6c0 1.5-.5 2.8-1.6 3.8s-2.3 1.5-3.7 1.5c-1.8 0-3.4-.8-4.7-2.4-1.3-1.6-2-3.7-2-6.4 0-2.4.5-4.6 1.6-6.7 1-2.1 2.5-3.9 4.2-5.4 1.8-1.5 4-2.4 6.5-2.7z"/></svg>