<?xml version="1.0" standalone="no"?><!DOCTYPE svg PUBLIC "-//W3C//DTD SVG 1.1//EN" "http://www.w3.org/Graphics/SVG/1.1/DTD/svg11.dtd"><svg width="100%" height="100%" viewBox="0 0 30 15" version="1.1" xmlns="http://www.w3.org/2000/svg" xmlns:xlink="http://www.w3.org/1999/xlink" xml:space="preserve" style="fill-rule:evenodd;clip-rule:evenodd;stroke-linejoin:round;stroke-miterlimit:1.41421;"><g id="XMLID_203_"><path id="XMLID_208_" d="M11.03,4.435c0,-2.182 1.761,-3.981 3.981,-3.981c2.22,0 3.981,1.761 3.981,3.981c0,2.181 -1.761,3.98 -3.981,3.98c-2.22,0 -3.981,-1.799 -3.981,-3.98Z" style="fill:#0067b4;fill-rule:nonzero;"/><path id="XMLID_204_" d="M25.078,0.952l-6.775,7.31c-1.11,1.11 -2.297,1.455 -3.369,1.417c-1.071,0.038 -2.258,-0.345 -3.368,-1.417l-6.89,-7.464c-2.334,-2.22 -5.779,0.613 -3.98,3.522l7.157,7.655c2.029,2.029 4.555,3.062 7.12,3.024c2.564,0.038 5.09,-0.995 7.157,-3.062l6.852,-7.464c2.335,-2.526 -1.34,-6.239 -3.904,-3.521Z" style="fill:#0067b4;fill-rule:nonzero;"/></g></svg>