<svg id="Layer_1" xmlns="http://www.w3.org/2000/svg" viewBox="0 0 300 100"><style>.st0{fill:#9daabb}.st1{fill:#0067b4}</style><path id="XMLID_246_" class="st0" d="M98.8 65c-.2 0-.3 0-.5-.1-.1 0-.1 0-.2-.1-.1 0-.2-.1-.2-.1h-.1l-.1-.1c-.2-.2-.4-.4-.5-.7l-9.3-22.1c-.3-.8 0-1.8.9-2.2.2-.1.4-.1.7-.1.7 0 1.3.4 1.6 1.1L98.7 59l7.8-18.4c.2-.6.9-1.1 1.6-1.1.2 0 .4 0 .6.1.4.2.7.5.9.9.2.4.1.9 0 1.3l-9.2 21.9c-.1.3-.2.5-.4.7-.4.4-.9.6-1.2.6z"/><path id="XMLID_226_" class="st0" d="M137.8 65c-.9 0-1.7-.8-1.7-1.7V61c-2.3 2.6-5.5 4-8.8 4-6.7 0-12.2-5.8-12.2-12.9s5.5-12.9 12.2-12.9c3.3 0 6.5 1.4 8.8 4V41c0-1 .7-1.7 1.7-1.7s1.7.7 1.7 1.7v22.3c0 .9-.8 1.7-1.7 1.7zm-10.5-22.4c-4.9 0-8.8 4.3-8.8 9.5s4 9.5 8.8 9.5c4.9 0 8.8-4.2 8.8-9.5 0-5.2-4-9.5-8.8-9.5z"/><path id="XMLID_224_" class="st0" d="M150.2 65c-.9 0-1.7-.8-1.7-1.7V30.4c0-.9.8-1.7 1.7-1.7 1 0 1.7.8 1.7 1.7v32.9c.1.9-.7 1.7-1.7 1.7z"/><path id="XMLID_216_" class="st0" d="M171.4 65c-6.9 0-12.5-5.7-12.5-12.8 0-3.5 1.3-6.7 3.6-9.1 2.4-2.4 5.5-3.8 8.9-3.8 6.5 0 11.9 5.1 12.4 12v.2c0 .9-.7 1.6-1.7 1.6h-19.8c.2 2.3 1.2 4.4 2.8 5.9 1.7 1.7 3.9 2.6 6.3 2.6 3.1 0 6-1.6 7.6-4.3.3-.5.8-.8 1.4-.8.3 0 .6.1.9.2.8.6 1 1.6.5 2.4-2.3 3.7-6.2 5.9-10.4 5.9zm8.7-15.3c-.5-2-1.5-3.7-3.1-5-1.6-1.3-3.6-2.1-5.6-2.1-2.1 0-4.1.7-5.7 2-1.5 1.3-2.6 3-3.1 5h17.5z"/><path id="XMLID_215_" class="st0" d="M210.1 65c-1 0-1.7-.7-1.7-1.7V49.9c0-3.9-3.2-7.1-7.1-7.1-3.9 0-7.1 3.2-7.2 7.2V63.8c-.1.2-.1.5-.3.7-.3.4-.8.6-1.3.6h-.6c-.5-.1-.9-.4-1.1-.9-.1-.1-.1-.1-.1-.2l-.1-.1.1-.2V41c0-1 .7-1.7 1.7-1.7.9 0 1.6.8 1.6 1.7v1.2c1.9-1.8 4.5-2.9 7.2-2.9 5.8 0 10.5 4.7 10.5 10.5v13.4c.1 1-.7 1.8-1.6 1.8z"/><path id="XMLID_214_" class="st0" d="M228.7 65c-3.3 0-6.5-1.3-9.4-3.6-.7-.6-.8-1.6-.2-2.3.3-.4.8-.6 1.3-.6.4 0 .8.1 1.1.4 2.5 1.8 5 2.8 7.3 2.8 1.7 0 3.3-.5 4.4-1.4 1.1-.7 1.7-1.7 1.7-2.6 0-1-.5-1.7-1.6-2.7-1-.7-2.7-1.3-5-1.7h-.1l-.1-.1c-2.1-.4-4.2-.9-5.7-2-1.8-1.1-2.9-2.9-2.9-4.9 0-2 1-3.9 2.9-5.2 1.7-1.2 3.9-1.8 6.3-1.8 3.3 0 5.6 1.5 7.5 2.7l.1.1c.8.6 1 1.6.5 2.4-.3.5-.8.8-1.4.8-.3 0-.6-.1-.9-.3l-.2-.1c-1.7-1.1-3.4-2.3-5.6-2.3-1.8 0-3.4.5-4.4 1.3-.9.7-1.4 1.6-1.4 2.5 0 .8.3 1.4 1.2 2.1 1.1.8 2.7 1.3 4.8 1.6h.1c2.3.3 4.3 1 6.2 2.1 1.9 1.2 3 3.3 3 5.5 0 2-1 3.9-3 5.4-1.9 1.2-4 1.9-6.5 1.9z"/><path id="XMLID_211_" class="st0" d="M267.8 65c-.9 0-1.7-.8-1.7-1.7V61c-2.3 2.6-5.5 4-8.8 4-6.7 0-12.2-5.8-12.2-12.9s5.5-12.9 12.2-12.9c3.3 0 6.5 1.4 8.8 4V41c0-1 .7-1.7 1.7-1.7s1.7.7 1.7 1.7v22.3c0 .9-.8 1.7-1.7 1.7zm-10.5-22.4c-4.9 0-8.8 4.3-8.8 9.5s4 9.5 8.8 9.5c4.9 0 8.8-4.2 8.8-9.5 0-5.2-3.9-9.5-8.8-9.5z"/><path id="XMLID_209_" class="st0" d="M286.5 65c-3.3 0-6.5-1.3-9.4-3.6-.7-.6-.8-1.6-.2-2.3.3-.4.8-.6 1.3-.6.4 0 .8.1 1.1.4 2.5 1.8 5 2.8 7.3 2.8 1.7 0 3.3-.5 4.4-1.4 1.1-.7 1.7-1.7 1.7-2.6 0-1-.5-1.7-1.6-2.7-1-.7-2.7-1.3-5-1.7h-.1l-.1-.1c-2.1-.4-4.2-.9-5.7-2-1.8-1.1-2.9-2.9-2.9-4.9 0-2 1-3.9 2.9-5.2 1.7-1.2 3.9-1.8 6.3-1.8 3.3 0 5.6 1.5 7.5 2.7l.1.1c.8.6 1 1.6.5 2.4-.3.5-.8.8-1.4.8-.3 0-.6-.1-.9-.3l-.2-.1c-1.7-1.1-3.4-2.3-5.6-2.3-1.8 0-3.4.5-4.4 1.3-.9.7-1.4 1.6-1.4 2.5 0 .8.3 1.4 1.2 2.1 1.1.8 2.7 1.3 4.8 1.6h.1c2.3.3 4.3 1 6.2 2.1 1.9 1.2 3 3.3 3 5.5 0 2-1 3.9-3 5.4-1.9 1.2-4 1.9-6.5 1.9z"/><g id="XMLID_203_"><path id="XMLID_208_" class="st1" d="M32 44.2c0-5.7 4.6-10.4 10.4-10.4s10.4 4.6 10.4 10.4c0 5.7-4.6 10.4-10.4 10.4S32 49.9 32 44.2z"/><path id="XMLID_204_" class="st1" d="M68.7 35.1L51 54.2c-2.9 2.9-6 3.8-8.8 3.7-2.8.1-5.9-.9-8.8-3.7l-18-19.5C9.3 28.9.3 36.3 5 43.9l18.7 20c5.3 5.3 11.9 8 18.6 7.9 6.7.1 13.3-2.6 18.7-8l17.9-19.5c6.1-6.6-3.5-16.3-10.2-9.2z"/></g></svg>