<?xml version="1.0" standalone="no"?><!DOCTYPE svg PUBLIC "-//W3C//DTD SVG 1.1//EN" "http://www.w3.org/Graphics/SVG/1.1/DTD/svg11.dtd"><svg width="100%" height="100%" viewBox="0 0 150 60" version="1.1" xmlns="http://www.w3.org/2000/svg" xmlns:xlink="http://www.w3.org/1999/xlink" xml:space="preserve" style="fill-rule:evenodd;clip-rule:evenodd;stroke-linejoin:round;stroke-miterlimit:1.41421;"><path id="XMLID_246_" d="M48.946,37.518c-0.102,0 -0.153,0 -0.255,-0.052c-0.051,0 -0.051,0 -0.102,-0.051c-0.051,0 -0.102,-0.051 -0.102,-0.051l-0.051,0l-0.051,-0.051c-0.102,-0.102 -0.205,-0.204 -0.256,-0.357l-4.746,-11.28c-0.153,-0.408 0,-0.919 0.459,-1.123c0.102,-0.051 0.204,-0.051 0.357,-0.051c0.358,0 0.664,0.204 0.817,0.562l3.879,9.391l3.981,-9.391c0.102,-0.307 0.46,-0.562 0.817,-0.562c0.102,0 0.204,0 0.306,0.051c0.204,0.102 0.357,0.255 0.46,0.46c0.102,0.204 0.051,0.459 0,0.663l-4.696,11.178c-0.051,0.153 -0.102,0.255 -0.204,0.357c-0.205,0.204 -0.46,0.307 -0.613,0.307l0,0Z" style="fill:#9daabb;fill-rule:nonzero;"/><path id="XMLID_226_" d="M68.852,37.518c-0.459,0 -0.868,-0.409 -0.868,-0.868l0,-1.174c-1.174,1.327 -2.807,2.042 -4.491,2.042c-3.42,0 -6.227,-2.961 -6.227,-6.585c0,-3.624 2.807,-6.584 6.227,-6.584c1.684,0 3.317,0.715 4.491,2.042l0,-1.123c0,-0.511 0.358,-0.868 0.868,-0.868c0.51,0 0.868,0.357 0.868,0.868l0,11.382c0,0.459 -0.409,0.868 -0.868,0.868l0,0ZM63.493,26.084c-2.501,0 -4.492,2.195 -4.492,4.849c0,2.654 2.042,4.849 4.492,4.849c2.501,0 4.491,-2.144 4.491,-4.849c0,-2.654 -2.041,-4.849 -4.491,-4.849l0,0Z" style="fill:#9daabb;fill-rule:nonzero;"/><path id="XMLID_224_" d="M75.181,37.518c-0.459,0 -0.868,-0.409 -0.868,-0.868l0,-16.793c0,-0.459 0.409,-0.867 0.868,-0.867c0.511,0 0.868,0.408 0.868,0.867l0,16.793c0.051,0.459 -0.357,0.868 -0.868,0.868Z" style="fill:#9daabb;fill-rule:nonzero;"/><path id="XMLID_216_" d="M86.002,37.518c-3.522,0 -6.38,-2.91 -6.38,-6.534c0,-1.786 0.663,-3.419 1.837,-4.644c1.225,-1.225 2.807,-1.94 4.543,-1.94c3.317,0 6.074,2.603 6.329,6.125l0,0.102c0,0.459 -0.357,0.817 -0.868,0.817l-10.106,0c0.102,1.174 0.613,2.245 1.429,3.011c0.868,0.868 1.991,1.327 3.216,1.327c1.582,0 3.062,-0.817 3.879,-2.195c0.153,-0.255 0.408,-0.408 0.714,-0.408c0.154,0 0.307,0.051 0.46,0.102c0.408,0.306 0.51,0.817 0.255,1.225c-1.174,1.889 -3.164,3.012 -5.308,3.012l0,0ZM90.442,29.708c-0.255,-1.021 -0.765,-1.888 -1.582,-2.552c-0.817,-0.663 -1.837,-1.072 -2.858,-1.072c-1.072,0 -2.093,0.358 -2.91,1.021c-0.765,0.664 -1.327,1.531 -1.582,2.552l8.932,0l0,0.051Z" style="fill:#9daabb;fill-rule:nonzero;"/><path id="XMLID_215_" d="M105.755,37.518c-0.511,0 -0.868,-0.358 -0.868,-0.868l0,-6.84c0,-1.99 -1.633,-3.624 -3.624,-3.624c-1.991,0 -3.624,1.634 -3.675,3.675l0,7.044c-0.051,0.102 -0.051,0.255 -0.153,0.357c-0.153,0.204 -0.408,0.307 -0.664,0.307l-0.255,0l-0.051,0c-0.255,-0.051 -0.459,-0.205 -0.561,-0.46c-0.051,-0.051 -0.051,-0.051 -0.051,-0.102l-0.051,-0.051l0.051,-0.102l0,-11.586c0,-0.511 0.357,-0.868 0.867,-0.868c0.46,0 0.817,0.408 0.817,0.868l0,0.612c0.97,-0.919 2.297,-1.48 3.675,-1.48c2.96,0 5.359,2.399 5.359,5.359l0,6.84c0.051,0.51 -0.357,0.919 -0.816,0.919l0,0Z" style="fill:#9daabb;fill-rule:nonzero;"/><path id="XMLID_214_" d="M115.248,37.518c-1.684,0 -3.317,-0.664 -4.798,-1.838c-0.357,-0.306 -0.408,-0.817 -0.102,-1.174c0.153,-0.204 0.409,-0.306 0.664,-0.306c0.204,0 0.408,0.051 0.561,0.204c1.276,0.919 2.552,1.429 3.726,1.429c0.868,0 1.685,-0.255 2.246,-0.714c0.562,-0.358 0.868,-0.868 0.868,-1.327c0,-0.511 -0.255,-0.868 -0.817,-1.379c-0.51,-0.357 -1.378,-0.663 -2.552,-0.867l-0.051,0l-0.051,-0.051c-1.072,-0.204 -2.144,-0.46 -2.909,-1.021c-0.919,-0.562 -1.481,-1.48 -1.481,-2.501c0,-1.021 0.511,-1.991 1.481,-2.654c0.867,-0.613 1.99,-0.919 3.215,-0.919c1.685,0 2.859,0.766 3.828,1.378l0.051,0.051c0.409,0.306 0.511,0.817 0.256,1.225c-0.154,0.255 -0.409,0.408 -0.715,0.408c-0.153,0 -0.306,-0.051 -0.459,-0.153l-0.102,-0.051c-0.868,-0.561 -1.736,-1.174 -2.859,-1.174c-0.918,0 -1.735,0.256 -2.246,0.664c-0.459,0.357 -0.714,0.817 -0.714,1.276c0,0.408 0.153,0.714 0.612,1.072c0.562,0.408 1.378,0.663 2.45,0.816l0.051,0c1.174,0.154 2.195,0.511 3.165,1.072c0.97,0.613 1.531,1.685 1.531,2.808c0,1.02 -0.51,1.99 -1.531,2.756c-0.97,0.612 -2.042,0.97 -3.318,0.97l0,0Z" style="fill:#9daabb;fill-rule:nonzero;"/><path id="XMLID_211_" d="M135.205,37.518c-0.459,0 -0.867,-0.409 -0.867,-0.868l0,-1.174c-1.174,1.327 -2.808,2.042 -4.492,2.042c-3.42,0 -6.227,-2.961 -6.227,-6.585c0,-3.624 2.807,-6.584 6.227,-6.584c1.684,0 3.318,0.715 4.492,2.042l0,-1.123c0,-0.511 0.357,-0.868 0.867,-0.868c0.511,0 0.868,0.357 0.868,0.868l0,11.382c0,0.459 -0.408,0.868 -0.868,0.868l0,0ZM129.846,26.084c-2.501,0 -4.492,2.195 -4.492,4.849c0,2.654 2.042,4.849 4.492,4.849c2.501,0 4.492,-2.144 4.492,-4.849c0,-2.654 -1.991,-4.849 -4.492,-4.849l0,0Z" style="fill:#9daabb;fill-rule:nonzero;"/><path id="XMLID_209_" d="M144.75,37.518c-1.684,0 -3.318,-0.664 -4.798,-1.838c-0.357,-0.306 -0.408,-0.817 -0.102,-1.174c0.153,-0.204 0.408,-0.306 0.664,-0.306c0.204,0 0.408,0.051 0.561,0.204c1.276,0.919 2.552,1.429 3.726,1.429c0.868,0 1.684,-0.255 2.246,-0.714c0.561,-0.358 0.867,-0.868 0.867,-1.327c0,-0.511 -0.255,-0.868 -0.816,-1.379c-0.511,-0.357 -1.378,-0.663 -2.552,-0.867l-0.051,0l-0.051,-0.051c-1.072,-0.204 -2.144,-0.46 -2.91,-1.021c-0.918,-0.562 -1.48,-1.48 -1.48,-2.501c0,-1.021 0.511,-1.991 1.48,-2.654c0.868,-0.613 1.991,-0.919 3.216,-0.919c1.684,0 2.858,0.766 3.828,1.378l0.051,0.051c0.408,0.306 0.51,0.817 0.255,1.225c-0.153,0.255 -0.408,0.408 -0.714,0.408c-0.153,0 -0.307,-0.051 -0.46,-0.153l-0.102,-0.051c-0.868,-0.561 -1.735,-1.174 -2.858,-1.174c-0.919,0 -1.735,0.256 -2.246,0.664c-0.459,0.357 -0.714,0.817 -0.714,1.276c0,0.408 0.153,0.714 0.612,1.072c0.561,0.408 1.378,0.663 2.45,0.816l0.051,0c1.174,0.154 2.195,0.511 3.165,1.072c0.969,0.613 1.531,1.685 1.531,2.808c0,1.02 -0.511,1.99 -1.531,2.756c-0.97,0.612 -2.042,0.97 -3.318,0.97l0,0Z" style="fill:#9daabb;fill-rule:nonzero;"/><g id="XMLID_203_"><path id="XMLID_208_" d="M14.851,26.901c0,-2.909 2.348,-5.308 5.308,-5.308c2.96,0 5.308,2.348 5.308,5.308c0,2.909 -2.348,5.308 -5.308,5.308c-2.96,0 -5.308,-2.399 -5.308,-5.308l0,0Z" style="fill:#0067b4;fill-rule:nonzero;"/><path id="XMLID_204_" d="M33.583,22.256l-9.034,9.749c-1.481,1.48 -3.063,1.94 -4.492,1.889c-1.429,0.051 -3.011,-0.46 -4.492,-1.889l-9.187,-9.953c-3.114,-2.96 -7.707,0.817 -5.308,4.696l9.544,10.208c2.706,2.705 6.074,4.083 9.494,4.032c3.42,0.051 6.788,-1.327 9.545,-4.083l9.136,-9.953c3.113,-3.369 -1.786,-8.32 -5.206,-4.696Z" style="fill:#0067b4;fill-rule:nonzero;"/></g></svg>